<?xml version="1.0" encoding="UTF-8"?>
<svg version="1.1" xmlns="http://www.w3.org/2000/svg" width="300" height="142">
<path d="M0 0 C99 0 198 0 300 0 C300 46.86 300 93.72 300 142 C201 142 102 142 0 142 C0 95.14 0 48.28 0 0 Z " fill="#121212" transform="translate(0,0)"/>
<path d="M0 0 C7.59545478 6.99826915 11.70093433 15.81165545 12.21484375 26.08984375 C11.83430022 38.12289247 6.99503941 49.82765755 -1.41015625 58.46484375 C-2.02761719 59.109375 -2.64507812 59.75390625 -3.28125 60.41796875 C-8.09504442 65.02836341 -13.12445889 67.38821905 -19.41015625 69.46484375 C-20.40015625 69.79484375 -21.39015625 70.12484375 -22.41015625 70.46484375 C-34.99522554 71.68578331 -44.65846252 67.67256563 -54.3125 59.94140625 C-61.50381103 53.48968301 -65.81263767 44.30202356 -66.6484375 34.73828125 C-66.8874996 25.40227716 -65.28292258 17.50051536 -59.16015625 10.21484375 C-57.9338093 8.94163004 -56.68336996 7.6911907 -55.41015625 6.46484375 C-54.79011719 5.84738281 -54.17007813 5.22992188 -53.53125 4.59375 C-38.89456575 -9.15586247 -16.46605647 -12.74666489 0 0 Z " fill="#97fb57" transform="translate(111.41015625,38.53515625)"/>
<path d="M0 0 C8.80817087 5.50510679 16.95615585 12.85184609 19.62890625 23.2109375 C21.47252508 35.50769613 20.19888519 46.50566111 12.78125 56.70703125 C5.99228174 64.77884064 -2.58917917 69.79865637 -12.96875 71.89453125 C-19.90004075 72.45420069 -25.74074407 72.07287312 -31.96875 68.89453125 C-32.61328125 68.56582031 -33.2578125 68.23710938 -33.921875 67.8984375 C-44.87513679 61.66715274 -51.53476252 52.48096283 -55.96875 40.89453125 C-57.98241076 30.31110492 -58.42760997 19.21787096 -52.6796875 9.77734375 C-39.71836129 -8.59031104 -19.13875836 -10.1366362 0 0 Z " fill="#97fb57" transform="translate(228.96875,37.10546875)"/>
<path d="M0 0 C2.92937654 1.81310142 5.43647949 3.87295899 7 7 C7.40417552 9.96395382 7.56382171 12.08904926 5.953125 14.69140625 C2.9740449 18.32763637 1.35633792 19.84645231 -3.3125 20.375 C-7.90598187 19.90786625 -9.11447985 18.47959782 -12 15 C-12.33 14.67 -12.66 14.34 -13 14 C-13.71194379 6.88056206 -13.71194379 6.88056206 -10.625 3.0625 C-6.84598336 0.09327264 -4.82619179 -0.55686828 0 0 Z " fill="#080808" transform="translate(192,59)"/>
<path d="M0 0 C3 2.125 3 2.125 5 5 C5.50984054 9.15155867 5.56619697 12.57840405 3 16 C0.17020376 18.26383699 -1.85964144 18.97448026 -5.4375 19.625 C-9.85181818 18.85055821 -11.2646023 17.44201655 -13.890625 13.93359375 C-15.58053393 10.98815389 -15.77420939 9.30798558 -15 6 C-10.9689317 -0.31977008 -7.28968362 -2.00710218 0 0 Z " fill="#060606" transform="translate(69,60)"/>
<path d="M0 0 C0.33 0 0.66 0 1 0 C1.09796875 0.83402344 1.1959375 1.66804688 1.296875 2.52734375 C2.94182458 14.90700742 6.98136818 25.74566705 16.546875 34.26953125 C25.86102567 41.36038889 34.32787366 44.55619291 46 45 C46 45.33 46 45.66 46 46 C32.01554415 46.78909155 23.55398944 43.41345751 13.125 34.375 C8.57848973 30.14204216 5.65822363 25.58908558 3 20 C2.67902344 19.36320312 2.35804687 18.72640625 2.02734375 18.0703125 C-0.59569388 12.18982814 -0.28518616 6.33747025 0 0 Z " fill="#97fb57" transform="translate(35,69)"/>
<path d="M0 0 C1.54505062 4.44202052 0.14917539 7.1757217 -1.640625 11.34375 C-7.54457931 22.88021245 -17.60913086 31.45565693 -29.84375 35.62890625 C-32.99028195 36.17042896 -36.06092825 36.09202844 -39.25 36.0625 C-40.51328125 36.05347656 -41.7765625 36.04445312 -43.078125 36.03515625 C-44.04234375 36.02355469 -45.0065625 36.01195312 -46 36 C-46 35.67 -46 35.34 -46 35 C-44.96101562 34.91363281 -43.92203125 34.82726562 -42.8515625 34.73828125 C-29.01169247 33.42011924 -19.64756559 29.47311231 -10 19 C-5.52440045 13.08581488 -2.26209154 7.05240305 0 0 Z " fill="#97fb57" transform="translate(258,79)"/>
<path d="M0 0 C0.33 0 0.66 0 1 0 C1.09796875 0.83402344 1.1959375 1.66804688 1.296875 2.52734375 C2.72717442 13.29157987 6.03399735 21.0265452 12 30 C11.01 30 10.02 30 9 30 C1.33106032 21.15122344 -0.72177323 11.48822387 0 0 Z " fill="#97fb57" transform="translate(35,69)"/>
<path d="M0 0 C1.54120618 4.43096777 0.15359341 7.15485762 -1.62109375 11.31640625 C-3.82647389 15.60846335 -6.50849186 19.64620795 -10 23 C-10.99 23 -11.98 23 -13 23 C-12.62488281 22.53851563 -12.24976563 22.07703125 -11.86328125 21.6015625 C-6.644286 14.94964412 -3.06956223 7.85528879 0 0 Z " fill="#97fb57" transform="translate(258,79)"/>
</svg>
