<?xml version="1.0" encoding="UTF-8"?>
<svg version="1.1" xmlns="http://www.w3.org/2000/svg" width="512" height="512">
<path d="M0 0 C1.19917557 -0.00960754 2.39835114 -0.01921509 3.63386536 -0.02911377 C4.93893539 -0.03336365 6.24400543 -0.03761353 7.58862305 -0.04199219 C8.94467672 -0.04774941 10.30073039 -0.05350707 11.65678406 -0.05926514 C14.50914894 -0.06978544 17.36148562 -0.07561895 20.21386719 -0.07910156 C23.83353632 -0.08453816 27.45282002 -0.10845593 31.07236958 -0.13707352 C33.88059995 -0.1559054 36.68874214 -0.16091662 39.49703026 -0.16243744 C41.46920028 -0.16686441 43.44132272 -0.18542571 45.41340637 -0.20440674 C62.26983129 -0.16340676 75.65135155 4.04250634 87.9987793 15.74316406 C99.37352804 27.75847033 102.09737726 40.99434519 104.5378418 56.78613281 C104.80761049 58.47510529 105.07843549 60.1639094 105.3503418 61.85253906 C106.00836801 65.95356434 106.65206319 70.0566022 107.2878418 74.16113281 C108.10482345 74.16210962 108.92180511 74.16308643 109.76354378 74.16409284 C158.15474731 74.22232979 206.54590582 74.29609993 254.93705375 74.39011909 C260.74384291 74.40138763 266.55063231 74.41252602 272.35742188 74.42358398 C273.51347824 74.42578767 274.6695346 74.42799135 275.86062298 74.43026181 C294.59399855 74.46566095 313.32737407 74.4905103 332.06077071 74.51147983 C351.27442253 74.53322106 370.48803084 74.56625547 389.70164567 74.60983437 C401.56317081 74.63638003 413.4246417 74.65405393 425.28619508 74.66047885 C433.41351306 74.66572383 441.54076271 74.68191075 449.66804411 74.70679847 C454.36123942 74.72084405 459.05431233 74.7299729 463.74752998 74.72614098 C468.04149473 74.72274123 472.33519763 74.73303473 476.6291087 74.75436833 C478.18503304 74.75965489 479.74098443 74.75985166 481.29690864 74.75452844 C483.40781366 74.74804042 485.51784789 74.75988062 487.62868023 74.77637196 C488.80239577 74.77827056 489.97611131 74.78016916 491.18539399 74.78212529 C494.6315183 75.20311772 496.52139572 76.09760784 499.2878418 78.16113281 C501.95928907 83.50402735 500.30955499 89.70424358 498.59814453 95.10009766 C497.82014797 97.36236917 497.02698597 99.61946303 496.22143555 101.87207031 C495.79601471 103.09667465 495.37059387 104.32127899 494.93228149 105.58299255 C493.783919 108.88797323 492.61874177 112.18678835 491.45021439 115.48468399 C490.23092074 118.93538491 489.027599 122.3916458 487.82275391 125.84741211 C485.88924572 131.3873223 483.94722636 136.92416699 481.99780273 142.45849609 C479.66495604 149.08189192 477.34944928 155.71117216 475.0456543 162.34472656 C472.92954599 168.43708289 470.80727911 174.52714791 468.67207336 180.61283875 C466.23731357 187.55274609 463.82441767 194.49900801 461.4561615 201.46192932 C460.20643101 205.13292137 458.94723383 208.80063408 457.68722534 212.46810913 C457.09966889 214.18659861 456.51656385 215.90661824 455.93850708 217.62832642 C449.74504265 236.06712853 442.24138407 250.74209732 424.2878418 260.16113281 C413.96188122 264.46905568 404.24127114 265.31308565 393.18945312 265.28138733 C392.09230925 265.28224175 390.99516537 265.28309618 389.8647747 265.2839765 C386.19979071 265.28561956 382.5348528 265.28012914 378.86987305 265.2746582 C376.23818462 265.27437605 373.60649612 265.27453461 370.97480774 265.27510071 C365.31476365 265.27562401 359.65473112 265.27249742 353.99468994 265.26686287 C345.81131027 265.25872167 337.62793618 265.25612996 329.4445529 265.25487488 C316.16623848 265.25268848 302.88793022 265.24603955 289.60961914 265.23657227 C276.71411164 265.2273875 263.81860582 265.22031187 250.9230957 265.21606445 C250.12766967 265.21580173 249.33224364 265.21553901 248.51271379 265.21526832 C244.52213185 265.21396325 240.5315499 265.21269955 236.54096794 265.21145642 C203.45658808 265.20109662 170.37221576 265.1834895 137.2878418 265.16113281 C138.08301229 270.03246838 138.88279914 274.90301762 139.68652344 279.77294922 C139.95824239 281.42314088 140.22878801 283.07352624 140.49804688 284.72412109 C143.3308188 309.68235048 143.3308188 309.68235048 156.2878418 330.16113281 C162.64489728 334.25769687 168.31786685 337.28169258 175.95152187 337.29141808 C177.35916794 337.2968546 177.35916794 337.2968546 178.79525131 337.30240095 C179.82296349 337.30133269 180.85067567 337.30026444 181.90953064 337.29916382 C183.55095349 337.30339574 183.55095349 337.30339574 185.22553641 337.30771315 C188.90508477 337.31606942 192.58460308 337.31739827 196.26416016 337.31884766 C198.89699895 337.32351502 201.52983694 337.32865846 204.16267395 337.33424377 C209.8385953 337.34576683 215.51451369 337.35401242 221.19044304 337.36036301 C230.16047499 337.3706895 239.13046991 337.39125255 248.10047913 337.41348267 C251.16923034 337.42096221 254.23798171 337.42837594 257.30673313 337.43577003 C258.07362881 337.4376206 258.8405245 337.43947117 259.63065944 337.44137781 C268.35940087 337.46230291 277.08814639 337.48113284 285.81689453 337.49902344 C286.61480573 337.50066162 287.41271693 337.5022998 288.23480726 337.50398763 C301.17068848 337.53028348 314.10657255 337.54892152 327.0424692 337.56561534 C340.32142933 337.58302883 353.60033336 337.61186481 366.87924868 337.65050471 C375.07126889 337.67391532 383.26319765 337.68790023 391.45525158 337.68983234 C397.06750894 337.69193984 402.67967525 337.70485322 408.29189175 337.72631167 C411.53100423 337.7383525 414.76989928 337.7438564 418.00903702 337.73959923 C421.51928051 337.73572184 425.02898634 337.75010357 428.53916931 337.76913452 C429.56465077 337.76360483 430.59013223 337.75807513 431.64668888 337.75237787 C440.35690862 337.83419914 440.35690862 337.83419914 444.2878418 341.16113281 C446.03111593 344.09300294 446.30216599 345.81018997 446.1628418 349.22363281 C445.15350839 352.61210925 444.0350429 353.97953193 441.2878418 356.16113281 C438.47379119 357.09914968 436.77354819 357.28716468 433.86326027 357.28976727 C432.49735172 357.29460393 432.49735172 357.29460393 431.10384905 357.29953831 C430.10202668 357.29798971 429.10020431 357.29644111 428.06802368 357.29484558 C427.00474204 357.29711114 425.94146041 357.29937669 424.84595811 357.3017109 C421.26488892 357.30806659 417.68385743 357.30722051 414.1027832 357.30639648 C411.54218496 357.30938714 408.98158718 357.31278945 406.42098999 357.3165741 C400.17457101 357.32451003 393.92816594 357.32762938 387.68174239 357.32818647 C382.60040191 357.3286616 377.51906455 357.3307162 372.43772507 357.3338871 C358.02286911 357.34269881 343.60802059 357.3473061 329.19316192 357.34655663 C328.41568069 357.34651667 327.63819947 357.34647671 326.8371582 357.34643555 C326.05872367 357.34639467 325.28028914 357.34635379 324.47826569 357.34631167 C311.88396581 357.34590588 299.28969593 357.35545702 286.69540472 357.36957391 C273.75547284 357.38396328 260.81555556 357.39084257 247.87561548 357.38998014 C240.61438696 357.38964887 233.35318983 357.39236457 226.09196854 357.40315819 C219.25480434 357.41325623 212.41770722 357.41290163 205.5805397 357.40564156 C203.07685754 357.4045985 200.57317121 357.40694197 198.06949615 357.41300201 C158.48081243 357.50258161 158.48081243 357.50258161 142.2878418 343.16113281 C141.68456055 342.68546875 141.0812793 342.20980469 140.4597168 341.71972656 C131.49255591 333.98454048 127.25390273 321.99577701 125.29872131 310.66065979 C125.05286509 309.3038357 125.05286509 309.3038357 124.80204207 307.91960102 C122.80392019 296.73841035 121.05163693 285.51574593 119.30126953 274.29370117 C118.92162345 271.87655887 118.54166002 269.4594664 118.16140747 267.04241943 C117.35036986 261.88330577 116.54130451 256.72388708 115.73397636 251.56419182 C114.56461054 244.09134122 113.39035262 236.6192651 112.21478093 229.14738853 C110.30373785 217.00070544 108.39490602 204.85367621 106.48828125 192.70629883 C106.37469621 191.98264024 106.26111117 191.25898165 106.14408416 190.51339401 C104.87526898 182.42931989 103.60706572 174.34515 102.33959961 166.26086426 C101.87874764 163.32145117 101.41789334 160.38203845 100.95703125 157.44262695 C100.78641266 156.35439814 100.78641266 156.35439814 100.61234724 155.2441849 C98.71205171 143.12459235 96.8075377 131.00566694 94.89971119 118.88725764 C93.72700843 111.4371634 92.55787593 103.98652643 91.39345504 96.53513319 C90.50127913 90.82786289 89.60347922 85.1214883 88.70364761 79.41542053 C88.33694373 77.08414733 87.97208922 74.75258233 87.60926628 72.42070198 C84.78900521 46.81223901 84.78900521 46.81223901 70.9128418 26.22363281 C63.34110696 20.81525078 55.39766918 19.05017012 46.16235352 19.01928711 C44.97447235 19.01225266 43.78659119 19.0052182 42.56271362 18.99797058 C41.2938028 18.9938063 40.02489197 18.98964203 38.7175293 18.98535156 C36.71040499 18.96809665 34.70328055 18.95081842 32.6961689 18.93214893 C27.76239721 18.88667964 22.82874575 18.84876693 17.89477539 18.83520508 C15.11894885 18.82707807 12.34357512 18.80853901 9.56790161 18.77827454 C6.95708287 18.75008495 4.34604489 18.73722029 1.7350769 18.74113464 C0.55350006 18.72464371 -0.62807678 18.70815277 -1.84545898 18.69116211 C-2.88437286 18.68529587 -3.92328674 18.67942963 -4.99368286 18.67338562 C-8.4000397 18.03151265 -9.58751771 16.84546156 -11.7121582 14.16113281 C-12.44535222 11.09896956 -12.29120039 8.2493578 -11.7121582 5.16113281 C-8.27532489 0.5786884 -5.51825385 0.03562079 0 0 Z M110.2878418 93.16113281 C111.65802231 109.60329896 114.64680242 125.87472335 117.2878418 142.16113281 C231.1378418 142.16113281 344.9878418 142.16113281 462.2878418 142.16113281 C473.11016774 118.13796172 473.11016774 118.13796172 478.2878418 93.16113281 C356.8478418 93.16113281 235.4078418 93.16113281 110.2878418 93.16113281 Z M120.2878418 160.16113281 C121.2778418 166.43113281 122.2678418 172.70113281 123.2878418 179.16113281 C230.8678418 179.16113281 338.4478418 179.16113281 449.2878418 179.16113281 C453.39307411 169.85045107 453.39307411 169.85045107 455.2878418 160.16113281 C344.7378418 160.16113281 234.1878418 160.16113281 120.2878418 160.16113281 Z M126.2878418 197.16113281 C128.7054806 215.06071493 128.7054806 215.06071493 131.4128418 232.91113281 C131.58170898 233.9875 131.75057617 235.06386719 131.92456055 236.17285156 C132.08827148 237.19507813 132.25198242 238.21730469 132.4206543 239.27050781 C132.56390137 240.16737305 132.70714844 241.06423828 132.85473633 241.98828125 C133.19555228 244.19633946 133.19555228 244.19633946 134.2878418 246.16113281 C168.98952615 246.27567122 203.69116723 246.36372885 238.3929999 246.41645946 C242.49336418 246.42271271 246.59372808 246.42918435 250.6940918 246.43579102 C251.51037252 246.43710257 252.32665324 246.43841412 253.16766974 246.43976542 C266.37073451 246.46149967 279.57369001 246.50091022 292.77669004 246.54689679 C306.33236992 246.59371666 319.88799272 246.62143988 333.44375014 246.63157529 C341.80296643 246.63842302 350.16187382 246.66002114 358.52099499 246.70071515 C364.25948005 246.72722189 369.99780629 246.73511595 375.73634806 246.7286397 C379.04330997 246.725449 382.34962295 246.73297545 385.65651321 246.75716019 C389.25232894 246.78216235 392.84683992 246.77601028 396.44268799 246.7624054 C397.98943659 246.78425171 397.98943659 246.78425171 399.56743264 246.80653936 C409.1498736 246.70903212 418.72866992 243.65782625 425.78686523 236.92431641 C431.9128319 229.72819876 435.11270788 221.0368599 438.1628418 212.22363281 C438.5650293 211.10150391 438.9672168 209.979375 439.3815918 208.82324219 C441.53635005 203.12454403 441.53635005 203.12454403 442.2878418 197.16113281 C338.0078418 197.16113281 233.7278418 197.16113281 126.2878418 197.16113281 Z " fill="#ffffff" transform="translate(11.712158203125,12.8388671875)"/>
<path d="M0 0 C11.18052089 8.88664502 17.27247716 20.04220457 19.5703125 34.04296875 C20.81385184 47.15975353 17.59156011 60.14740282 9.5625 70.67578125 C1.46962345 80.12217025 -9.63978073 88.0917671 -22.4375 89.2199707 C-39.04154942 89.70055378 -52.09216581 87.30434465 -64.90625 75.82421875 C-74.42356136 66.02043313 -79.19768814 53.77761276 -79.7421875 40.23046875 C-79.3720388 26.33900561 -74.19104232 14.17916163 -64.6796875 4.109375 C-46.57159663 -12.52114595 -20.09057766 -13.73539493 0 0 Z M-54.9609375 21.83984375 C-60.81615458 29.53332666 -61.2883725 37.60803477 -60.4296875 47.04296875 C-59.52799499 50.367046 -58.22031284 53.11125863 -56.4296875 56.04296875 C-56.05585938 56.67847656 -55.68203125 57.31398438 -55.296875 57.96875 C-51.0653638 64.51217958 -45.31019461 68.32853211 -37.8828125 70.5390625 C-29.0514605 72.35314595 -20.8115432 71.26670927 -13.08203125 66.63671875 C-5.32984336 61.14936037 -0.8314768 54.36054024 1.0703125 45.04296875 C2.18464262 35.96582129 0.27949682 28.97315268 -4.65625 21.3046875 C-9.16691584 15.55209824 -15.75485426 11.43278404 -22.7421875 9.35546875 C-36.01996524 7.81154111 -46.21085748 11.57189271 -54.9609375 21.83984375 Z " fill="#ffffff" transform="translate(231.4296875,408.95703125)"/>
<path d="M0 0 C1.36705746 1.00350484 2.72271157 2.02286784 4.0625 3.0625 C5.09375 3.805 6.125 4.5475 7.1875 5.3125 C17.37544354 15.05748947 22.64066581 27.63475984 23.12109375 41.66015625 C22.88303969 55.483162 17.96851341 68.07897074 8.28125 78.1015625 C-3.43836916 88.45939493 -16.03267758 92.01079113 -31.37109375 91.4453125 C-44.03729519 90.61568283 -55.4797691 84.42676004 -64.12109375 75.26171875 C-73.95490715 63.35540274 -76.83428639 50.22634259 -75.9375 35.0625 C-73.72098372 21.62377925 -67.01633223 10.48382106 -56.3671875 2.01953125 C-39.68915483 -9.38279721 -17.32722682 -11.15746553 0 0 Z M-50.73046875 22.1015625 C-56.19756998 29.7420052 -58.88427111 37.79605951 -57.6328125 47.1953125 C-55.44214005 56.22875958 -50.91919433 64.10501165 -42.9375 69.0625 C-34.99915522 73.10405851 -27.02170819 74.58806555 -18.3046875 72.40234375 C-9.63949733 69.34170318 -2.32080603 63.2004984 2.0625 55.0625 C5.13628598 47.3347423 5.66327785 37.99387237 2.5 30.1875 C-2.19897305 21.3171579 -9.04926696 15.31073443 -18.375 11.75 C-30.45954466 9.41789489 -42.40134661 12.62922752 -50.73046875 22.1015625 Z " fill="#ffffff" transform="translate(408.9375,406.9375)"/>
</svg>
