<?xml version="1.0" encoding="UTF-8"?>
<svg version="1.1" xmlns="http://www.w3.org/2000/svg" width="512" height="512">
<path d="M0 0 C0.96988861 0.00182281 1.93977722 0.00364563 2.9390564 0.00552368 C17.29056055 0.05091691 31.25442918 0.5562653 45.375 3.3125 C46.72053955 3.55395752 46.72053955 3.55395752 48.09326172 3.80029297 C71.49085828 8.03406631 94.07984565 15.77001331 115.375 26.3125 C116.05981445 26.6513623 116.74462891 26.99022461 117.45019531 27.33935547 C132.86510729 35.06944716 146.80934326 44.70733372 160.375 55.3125 C161.40753906 56.116875 162.44007813 56.92125 163.50390625 57.75 C179.35294136 70.64413026 194.4577224 85.70545898 206.375 102.3125 C207.18963176 103.39976929 208.00606765 104.48568897 208.82421875 105.5703125 C231.04732527 135.39169641 245.89974262 169.94482533 253.375 206.3125 C253.58527832 207.31893555 253.79555664 208.32537109 254.01220703 209.36230469 C259.87947034 238.84263164 260.42353623 272.81914732 254.375 302.3125 C254.06900879 303.84946533 254.06900879 303.84946533 253.75683594 305.41748047 C243.32360158 356.69523276 219.39271235 400.62922869 183.375 438.3125 C182.66859375 439.06015625 181.9621875 439.8078125 181.234375 440.578125 C176.00483324 445.97773316 170.25245885 450.63931429 164.375 455.3125 C163.30146889 456.18804924 162.22857003 457.06437417 161.15625 457.94140625 C152.32606916 465.09941808 143.05218127 471.35821208 133.375 477.3125 C132.78251465 477.67972168 132.1900293 478.04694336 131.57958984 478.42529297 C97.45952499 499.37759123 54.76327882 512.30661064 14.6796875 512.515625 C13.77773148 512.52263931 12.87577545 512.52965363 11.94648743 512.53688049 C9.04760703 512.55430732 6.14893087 512.56073387 3.25 512.5625 C2.26013092 512.56317474 1.27026184 512.56384949 0.25039673 512.56454468 C-14.2594987 512.54880838 -28.34693979 512.0994755 -42.625 509.3125 C-43.52202637 509.15152832 -44.41905273 508.99055664 -45.34326172 508.82470703 C-94.01308087 500.01794852 -139.08000617 476.58273592 -174.625 442.3125 C-175.31674316 441.64798828 -176.00848633 440.98347656 -176.72119141 440.29882812 C-185.97414002 431.36274766 -194.82368834 422.37767635 -202.41455078 411.97167969 C-203.62338648 410.31471168 -204.85501277 408.67671498 -206.08984375 407.0390625 C-228.29232706 377.20337946 -243.14917531 342.68293471 -250.625 306.3125 C-250.83527832 305.30606445 -251.04555664 304.29962891 -251.26220703 303.26269531 C-257.12947034 273.78236836 -257.67353623 239.80585268 -251.625 210.3125 C-251.42100586 209.28785645 -251.21701172 208.26321289 -251.00683594 207.20751953 C-242.49417192 165.36907696 -225.23742112 126.11484698 -197.625 93.3125 C-197.19638672 92.79510254 -196.76777344 92.27770508 -196.32617188 91.74462891 C-185.79622785 79.04352466 -174.63956722 67.49626532 -161.625 57.3125 C-160.55721387 56.44440288 -159.49086861 55.5745312 -158.42578125 54.703125 C-149.59394643 47.53372316 -140.33932031 41.22546999 -130.625 35.3125 C-129.93486816 34.8911377 -129.24473633 34.46977539 -128.53369141 34.03564453 C-104.27808621 19.4298122 -77.76162744 10.40464683 -50.1875 4.5 C-49.27790527 4.30486816 -48.36831055 4.10973633 -47.43115234 3.90869141 C-31.63474541 0.71900524 -16.07354361 -0.06277989 0 0 Z M-121.625 74.3125 C-122.26630859 74.76737793 -122.90761719 75.22225586 -123.56835938 75.69091797 C-131.87109675 81.63591629 -139.6719242 87.90165568 -147.07421875 94.9375 C-149.625 97.3125 -149.625 97.3125 -152.25390625 99.3984375 C-154.40163408 101.13218814 -156.10266921 102.83397608 -157.875 104.9375 C-159.76140753 107.15656434 -161.65119734 109.34021164 -163.65234375 111.45703125 C-195.97893031 145.77114754 -217.5657217 197.23199332 -217.828125 244.32421875 C-217.83513931 245.16642471 -217.84215363 246.00863068 -217.84938049 246.87635803 C-217.86681546 249.5842935 -217.8732341 252.29201044 -217.875 255 C-217.87601212 256.3858429 -217.87601212 256.3858429 -217.87704468 257.79968262 C-217.8614642 271.20122336 -217.47568249 284.17154902 -214.625 297.3125 C-214.45339355 298.15506348 -214.28178711 298.99762695 -214.10498047 299.86572266 C-206.03825242 339.04594332 -187.60771283 375.71610421 -160 404.76171875 C-157.625 407.3125 -157.625 407.3125 -155.5390625 409.94140625 C-153.80531186 412.08913408 -152.10352392 413.79016921 -150 415.5625 C-147.78093566 417.44890753 -145.59728836 419.33869734 -143.48046875 421.33984375 C-103.09467359 459.38642761 -44.97026886 477.72515816 9.78833008 476.22705078 C50.07738681 474.51332068 91.38802048 461.76388889 124.375 438.3125 C125.01630859 437.85762207 125.65761719 437.40274414 126.31835938 436.93408203 C134.62109675 430.98908371 142.4219242 424.72334432 149.82421875 417.6875 C152.375 415.3125 152.375 415.3125 155 413.23046875 C157.16898669 411.4788693 158.89390258 409.74794286 160.6875 407.625 C162.47530167 405.52328026 164.25678303 403.43854591 166.14453125 401.42578125 C198.80646822 366.42593722 220.30181986 315.30938599 220.578125 267.421875 C220.58513931 266.60332535 220.59215363 265.7847757 220.59938049 264.94142151 C220.61678269 262.31505768 220.62323262 259.68891937 220.625 257.0625 C220.62567474 256.16477875 220.62634949 255.2670575 220.62704468 254.34213257 C220.61121857 241.1010019 220.17254516 228.29856817 217.375 215.3125 C217.20339355 214.46848633 217.03178711 213.62447266 216.85498047 212.75488281 C208.7871708 173.57661852 190.35647008 136.90758831 162.75 107.86328125 C160.375 105.3125 160.375 105.3125 158.2890625 102.68359375 C156.55531186 100.53586592 154.85352392 98.83483079 152.75 97.0625 C150.53093566 95.17609247 148.34728836 93.28630266 146.23046875 91.28515625 C76.35568394 25.45763325 -39.4144428 19.02811293 -121.625 74.3125 Z " fill="#ff0000" transform="translate(254.625,-0.3125)"/>
<path d="M0 0 C4.21088588 2.44864504 7.27146474 5.49864704 10.67208862 8.95475769 C11.74141884 10.02343079 11.74141884 10.02343079 12.83235168 11.11369324 C15.17690351 13.46032794 17.5106617 15.81739483 19.8444519 18.17472839 C21.47189854 19.80777273 23.10001066 21.44015412 24.72875977 23.07189941 C29.00643622 27.36101078 33.27502539 31.65905598 37.54177856 35.95903015 C41.90023328 40.34821464 46.26723039 44.72888162 50.6335144 49.11027527 C59.19397528 57.70287647 67.74485928 66.30494084 76.2897644 74.91300964 C79.18509582 73.60298775 81.23955802 72.20812794 83.47053528 69.95256042 C84.07462723 69.34688232 84.67871918 68.74120422 85.30111694 68.11717224 C85.95213379 67.45425171 86.60315063 66.79133118 87.27389526 66.10832214 C87.96870499 65.4089856 88.66351471 64.70964905 89.37937927 63.98912048 C90.88643428 62.4711124 92.39120837 60.95083723 93.89396477 59.42857361 C96.27235309 57.02003979 98.65734291 54.61822934 101.04429626 52.21818542 C107.82924474 45.39346732 114.60145182 38.55615495 121.37057495 31.71574402 C125.5120915 27.53153726 129.66087259 23.35464457 133.81402779 19.18199158 C135.39538435 17.59006092 136.97381845 15.99522171 138.54926872 14.39744568 C140.75150854 12.16404615 142.96278132 9.93997135 145.17623901 7.71769714 C145.82523163 7.05477661 146.47422424 6.39185608 147.1428833 5.70884705 C151.92057654 0.94086545 155.69377437 -1.3545275 162.6022644 -1.52449036 C168.32871939 -1.40100885 172.08271916 0.02273016 176.2897644 3.91300964 C180.46444752 8.46613429 180.73205918 13.17191021 180.72335815 19.16691589 C179.60739415 26.2346879 175.12715315 30.49453008 170.24801636 35.29533386 C169.53556763 36.00822067 168.8231189 36.72110748 168.08908081 37.45559692 C165.74244611 39.80014874 163.38537922 42.13390694 161.02804565 44.46769714 C159.39500132 46.09514378 157.76261993 47.72325589 156.13087463 49.352005 C151.84176327 53.62968145 147.54371807 57.89827063 143.2437439 62.1650238 C138.85455941 66.52347852 134.47389243 70.89047563 130.09249878 75.25675964 C121.49989758 83.81722052 112.89783321 92.36810452 104.2897644 100.91300964 C105.5997863 103.80834106 106.99464611 105.86280326 109.25021362 108.09378052 C109.85589172 108.69787247 110.46156982 109.30196442 111.08560181 109.92436218 C111.74852234 110.57537903 112.41144287 111.22639587 113.0944519 111.8971405 C113.79378845 112.59195023 114.493125 113.28675995 115.21365356 114.00262451 C116.73166164 115.50967952 118.25193681 117.01445361 119.77420044 118.51721001 C122.18273425 120.89559833 124.58454471 123.28058815 126.98458862 125.6675415 C133.80930673 132.45248998 140.6466191 139.22469706 147.48703003 145.99382019 C151.67123679 150.13533674 155.84812947 154.28411783 160.02078247 158.43727303 C161.61271313 160.01862959 163.20755234 161.59706369 164.80532837 163.17251396 C167.0387279 165.37475378 169.26280269 167.58602656 171.4850769 169.79948425 C172.14799744 170.44847687 172.81091797 171.09746948 173.493927 171.76612854 C178.13134 176.41298723 180.57025808 180.09717493 180.6022644 186.85050964 C180.46091716 192.15103149 179.47673202 195.71570176 175.63742065 199.57316589 C171.37187994 203.38780378 168.30811453 205.05552854 162.4772644 205.16300964 C161.23009644 205.20168152 161.23009644 205.20168152 159.95773315 205.24113464 C152.93201855 204.37706433 148.62727547 199.66810875 143.90744019 194.8712616 C143.19455338 194.15881287 142.48166656 193.44636414 141.74717712 192.71232605 C139.4026253 190.36569135 137.06886711 188.00862446 134.7350769 185.65129089 C133.10763027 184.01824656 131.47951815 182.38586517 129.85076904 180.75411987 C125.57309259 176.46500851 121.30450342 172.16696331 117.03775024 167.86698914 C112.67929552 163.47780465 108.31229842 159.09713767 103.9460144 154.71574402 C95.38555353 146.12314282 86.83466953 137.52107845 78.2897644 128.91300964 C75.39443298 130.22303154 73.33997079 131.61789135 71.10899353 133.87345886 C70.50490158 134.47913696 69.90080963 135.08481506 69.27841187 135.70884705 C68.62739502 136.37176758 67.97637817 137.03468811 67.30563354 137.71769714 C66.61082382 138.41703369 65.9160141 139.11637024 65.20014954 139.8368988 C63.69309453 141.35490688 62.18832044 142.87518205 60.68556404 144.39744568 C58.30717572 146.80597949 55.92218589 149.20778995 53.53523254 151.60783386 C46.75028406 158.43255197 39.97807699 165.26986433 33.20895386 172.11027527 C29.0674373 176.29448203 24.91865622 180.47137471 20.76550102 184.64402771 C19.18414446 186.23595837 17.60571036 187.83079758 16.03026009 189.42857361 C13.82802027 191.66197314 11.61674749 193.88604793 9.40328979 196.10832214 C8.75429718 196.77124268 8.10530457 197.43416321 7.43664551 198.11717224 C2.65895227 202.88515384 -1.11424556 205.18054679 -8.0227356 205.35050964 C-13.74919058 205.22702813 -17.50319035 203.80328913 -21.7102356 199.91300964 C-25.88491871 195.359885 -26.15253037 190.65410908 -26.14382935 184.65910339 C-25.02786534 177.59133139 -20.54762434 173.33148921 -15.66848755 168.53068542 C-14.95603882 167.81779861 -14.24359009 167.1049118 -13.509552 166.37042236 C-11.1629173 164.02587054 -8.80585041 161.69211235 -6.44851685 159.35832214 C-4.81547251 157.73087551 -3.18309112 156.10276339 -1.55134583 154.47401428 C2.73776554 150.19633783 7.03581074 145.92774866 11.33578491 141.66099548 C15.7249694 137.30254076 20.10563638 132.93554366 24.48703003 128.56925964 C33.07963123 120.00879877 41.6816956 111.45791477 50.2897644 102.91300964 C48.97974251 100.01767822 47.5848827 97.96321603 45.32931519 95.73223877 C44.72363708 95.12814682 44.11795898 94.52405487 43.493927 93.9016571 C42.83100647 93.25064026 42.16808594 92.59962341 41.4850769 91.92887878 C40.78574036 91.23406906 40.08640381 90.53925934 39.36587524 89.82339478 C37.84786716 88.31633977 36.32759199 86.81156568 34.80532837 85.30880928 C32.39679456 82.93042096 29.9949841 80.54543113 27.59494019 78.15847778 C20.77022208 71.3735293 13.93290971 64.60132222 7.09249878 57.8321991 C2.90829202 53.69068254 -1.26860067 49.54190146 -5.44125366 45.38874626 C-7.03318432 43.8073897 -8.62802353 42.2289556 -10.22579956 40.65350533 C-12.45919909 38.4512655 -14.68327389 36.23999273 -16.9055481 34.02653503 C-17.56846863 33.37754242 -18.23138916 32.7285498 -18.91439819 32.05989075 C-23.68237979 27.28219751 -25.97777274 23.50899968 -26.1477356 16.60050964 C-26.02425409 10.87405466 -24.60051508 7.12005489 -20.7102356 2.91300964 C-15.09301794 -2.23732239 -6.92893519 -2.77897824 0 0 Z " fill="#ff0000" transform="translate(178.71023559570313,154.0869903564453)"/>
</svg>
