<?xml version="1.0" encoding="UTF-8"?>
<svg version="1.1" xmlns="http://www.w3.org/2000/svg" width="512" height="512">
<path d="M0 0 C3.57640426 3.15064185 7.36426854 6.524679 7.828125 11.484375 C7.84359375 12.33515625 7.8590625 13.1859375 7.875 14.0625 C7.90078125 14.90296875 7.9265625 15.7434375 7.953125 16.609375 C7.21170973 22.7172246 3.57532582 26.79546936 -0.67260742 30.95068359 C-1.19973831 31.47825256 -1.7268692 32.00582153 -2.26997375 32.54937744 C-3.9997846 34.27711202 -5.73994771 35.99399867 -7.48046875 37.7109375 C-8.68752922 38.91239789 -9.89392545 40.11452597 -11.09968567 41.31729126 C-14.26430926 44.47049858 -17.43783994 47.61458963 -20.61334229 50.75683594 C-23.85640467 53.96912807 -27.09091795 57.19000335 -30.32617188 60.41015625 C-36.66746664 66.71934366 -43.01820908 73.01892863 -49.375 79.3125 C-46.15241422 82.62449355 -42.73605623 85.26621391 -38.9375 87.875 C-29.01488359 94.83064291 -19.74068096 102.52736985 -11.375 111.3125 C-10.570625 112.116875 -9.76625 112.92125 -8.9375 113.75 C-8.091875 114.595625 -7.24625 115.44125 -6.375 116.3125 C-5.82585937 116.81523437 -5.27671875 117.31796875 -4.7109375 117.8359375 C11.35859337 132.97965178 27.89901407 156.98056425 28.86328125 179.68359375 C29.48546144 207.75947472 16.34313011 228.4618828 -1.375 249.3125 C-1.98214844 250.04339844 -2.58929688 250.77429688 -3.21484375 251.52734375 C-6.58340273 255.50697918 -10.13023846 258.99453931 -14.11328125 262.35546875 C-15.75258175 263.77393084 -17.34938904 265.24198632 -18.91796875 266.73828125 C-31.07119834 278.32156628 -44.86641494 287.90392399 -59.375 296.3125 C-60.32366943 296.87783447 -60.32366943 296.87783447 -61.29150391 297.45458984 C-96.8666883 318.60901273 -137.36535785 329.77941777 -178.6875 329.6875 C-180.07104675 329.68668427 -180.07104675 329.68668427 -181.48254395 329.68585205 C-212.23509923 329.60274422 -246.4107568 324.54275927 -273.75 309.44921875 C-276.20911396 308.04286123 -276.20911396 308.04286123 -278.17140198 308.88500977 C-281.25144943 310.88026372 -283.70489536 313.40655674 -286.25756836 316.015625 C-286.83533524 316.5979187 -287.41310211 317.1802124 -288.00837708 317.78015137 C-289.26006773 319.04278551 -290.50947468 320.30768676 -291.75684929 321.57458496 C-293.73196158 323.57987941 -295.7136942 325.57840665 -297.69740295 327.57519531 C-303.33540384 333.25293487 -308.96062977 338.94327188 -314.58276367 344.63671875 C-318.02400777 348.12068286 -321.47253553 351.59730362 -324.92544746 355.06970215 C-326.23886691 356.39368635 -327.5493631 357.72057718 -328.85685539 359.05041504 C-330.68548346 360.9102473 -332.52315539 362.76068466 -334.36303711 364.609375 C-334.89982086 365.16008667 -335.43660461 365.71079834 -335.98965454 366.27819824 C-340.39902021 370.67681225 -344.10010722 372.58935793 -350.3125 372.6875 C-355.08730817 372.58107783 -357.72221681 371.53042805 -361.375 368.3125 C-364.91715571 364.2916746 -366.5279603 361.89968367 -366.625 356.5625 C-366.66367187 355.30179687 -366.66367187 355.30179687 -366.703125 354.015625 C-365.93270815 347.66885759 -362.01371218 343.51713461 -357.63183022 339.19180679 C-357.04737774 338.602994 -356.46292527 338.01418121 -355.86076212 337.4075256 C-353.89767668 335.43347932 -351.92407027 333.47030385 -349.9503479 331.50689697 C-348.52762964 330.08072251 -347.1055661 328.65389466 -345.68410242 327.22646976 C-341.77373775 323.30356065 -337.85404527 319.39008876 -333.93276691 315.47809291 C-329.70644395 311.25854589 -325.4887482 307.03039072 -321.26994324 302.80332947 C-313.48117747 295.00198111 -305.68558199 287.20749505 -297.88642051 279.41654114 C-290.68225116 272.21991611 -283.4808736 265.0205121 -276.28226852 257.81832123 C-275.80491073 257.34073428 -275.32755293 256.86314732 -274.83572975 256.37108804 C-272.89803018 254.43245448 -270.96034122 252.49381032 -269.02266971 250.55514871 C-250.84397979 232.36728069 -232.6565502 214.18817461 -214.4652003 196.01297 C-198.29854569 179.86055461 -182.13966747 163.70039831 -165.98730469 147.53369141 C-147.8439693 129.37429773 -129.69580407 111.21975357 -111.539801 93.07302451 C-109.60497879 91.13916447 -107.67016839 89.20529259 -105.73536301 87.27141571 C-105.25895271 86.79524264 -104.78254241 86.31906958 -104.29169543 85.82846702 C-97.09291004 78.63309614 -89.89783739 71.43402672 -82.70454788 64.23316193 C-74.52741215 56.04745782 -66.34480985 47.86726015 -58.15538932 39.6938456 C-53.97486235 35.52121951 -49.79680066 31.34620024 -45.62516975 27.16467857 C-41.80970595 23.34030521 -37.9874401 19.52287314 -34.15952365 15.71096513 C-32.77266147 14.3274666 -31.38834789 12.94140782 -30.00679417 11.55260828 C-28.13462288 9.67136961 -26.25353612 7.79952898 -24.36985207 5.92982864 C-23.8303455 5.38329858 -23.29083893 4.83676851 -22.73498368 4.27367693 C-16.3288197 -2.03721148 -8.25943227 -4.12971614 0 0 Z M-76.98220825 105.67919922 C-77.93485062 106.63850342 -77.93485062 106.63850342 -78.90673828 107.6171875 C-79.98763229 108.69830811 -79.98763229 108.69830811 -81.09036255 109.80126953 C-81.86749603 110.58872559 -82.64462952 111.37618164 -83.4453125 112.1875 C-84.63965408 113.38608643 -84.63965408 113.38608643 -85.85812378 114.60888672 C-88.41012752 117.17212119 -90.9551053 119.74220906 -93.5 122.3125 C-95.22480342 124.04732947 -96.95005799 125.78171053 -98.67578125 127.515625 C-102.91411048 131.77605296 -107.14668542 136.04213398 -111.375 140.3125 C-110.1326854 144.12145877 -108.77991117 147.66183512 -107 151.25 C-98.93938838 169.18904664 -96.85865617 190.90987739 -102.98046875 209.859375 C-108.11873998 222.58271328 -114.20135471 233.86554366 -124.375 243.3125 C-124.9628125 243.90546875 -125.550625 244.4984375 -126.15625 245.109375 C-142.66256781 260.99978543 -163.70113531 264.84488326 -185.8203125 264.5859375 C-198.00218682 264.23610261 -207.92042405 260.49527894 -218.44921875 254.60546875 C-221.6457403 253.19285375 -222.24029159 253.14849741 -225.375 254.3125 C-227.57966295 256.26112692 -229.62479844 258.21371637 -231.671875 260.31640625 C-232.26550842 260.91428452 -232.85914185 261.51216278 -233.47076416 262.12815857 C-235.36267195 264.03684102 -237.24387499 265.9556954 -239.125 267.875 C-240.40686002 269.17190836 -241.6894043 270.46814078 -242.97265625 271.76367188 C-246.11476072 274.93882957 -249.24730539 278.12314946 -252.375 281.3125 C-249.63345521 283.53727917 -247.22702345 284.90354361 -243.875 285.99609375 C-242.99875977 286.28202393 -242.12251953 286.5679541 -241.21972656 286.86254883 C-187.96720046 303.47539919 -135.16161957 298.49567472 -85.5625 273 C-75.64043742 267.77204447 -66.29404229 262.10852244 -57.375 255.3125 C-56.73868652 254.83409668 -56.10237305 254.35569336 -55.44677734 253.86279297 C-33.91353291 237.52704384 -13.11593303 217.53529908 -4.375 191.3125 C-2.62088753 175.299959 -11.38136144 162.01112405 -20.80322266 149.76196289 C-32.39613126 135.31762306 -46.25077841 122.92558436 -61.375 112.3125 C-61.99117187 111.87776367 -62.60734375 111.44302734 -63.2421875 110.99511719 C-69.80938022 105.21552144 -69.80938022 105.21552144 -76.98220825 105.67919922 Z M-141.49497986 170.16142273 C-142.05818436 170.72867569 -142.62138885 171.29592865 -143.20166016 171.88037109 C-143.79692001 172.47212631 -144.39217987 173.06388153 -145.00547791 173.67356873 C-146.98008275 175.63934042 -148.94724658 177.61237492 -150.9140625 179.5859375 C-152.27854599 180.9490748 -153.64332635 182.31191501 -155.00839233 183.67446899 C-157.87149359 186.53461683 -160.73093356 189.39836363 -163.58789062 192.26464844 C-167.25785994 195.94601233 -170.93673269 199.61832678 -174.61838722 203.28800011 C-177.43917094 206.10157113 -180.25519122 208.91987073 -183.06977463 211.7396431 C-184.42474733 213.09595393 -185.78121817 214.45076975 -187.13917923 215.80408859 C-189.0333667 217.69322056 -190.92106321 219.58860403 -192.80712891 221.48583984 C-193.65800835 222.33064659 -193.65800835 222.33064659 -194.52607727 223.19252014 C-197.44966772 225.77058976 -197.44966772 225.77058976 -198.375 229.3125 C-184.69333195 233.85401403 -172.26240278 234.52689896 -158.7109375 228.5625 C-146.36914083 221.95819409 -137.75035504 211.17801139 -133.26171875 198.05859375 C-132.24762666 193.77438972 -132.03275242 189.88311995 -132.0625 185.5 C-132.06378906 184.71189941 -132.06507813 183.92379883 -132.06640625 183.11181641 C-132.16453672 177.14916382 -133.0400267 171.84416294 -135.375 166.3125 C-138.35917965 166.3125 -139.47464084 168.16316456 -141.49497986 170.16142273 Z " fill="#000000" transform="translate(435.375,70.6875)"/>
<path d="M0 0 C0.92103516 0.00021149 1.84207031 0.00042297 2.79101562 0.00064087 C56.43570486 0.12320486 56.43570486 0.12320486 67.6875 11.375 C68.18077019 15.04192797 68.07989133 16.79164678 65.99438477 19.89208984 C63.43530122 22.53595674 60.8657156 25.1619737 58.25 27.75 C57.37150391 28.67683594 56.49300781 29.60367188 55.58789062 30.55859375 C48.19242472 37.97043338 48.19242472 37.97043338 43.078125 38.06640625 C40.86547852 37.80273438 40.86547852 37.80273438 38.6875 37.375 C37.97456787 37.27509766 37.26163574 37.17519531 36.52709961 37.07226562 C34.29803515 36.74548653 32.0905508 36.34538482 29.875 35.9375 C-22.2366993 27.2291517 -75.78044591 42.92775286 -118.41796875 73.27734375 C-126.92173546 79.44519615 -134.75822459 86.07837382 -142.3125 93.375 C-143.31875812 94.31797763 -144.32527221 95.26068219 -145.33203125 96.203125 C-157.91379335 108.16396373 -173.05758412 125.56916697 -173.6875 143.8125 C-173.61107191 150.86935991 -171.49863772 156.15676175 -168.3125 162.375 C-167.81621094 163.35339844 -167.31992188 164.33179688 -166.80859375 165.33984375 C-158.82356613 179.98226789 -145.16062395 195.98631715 -131.3359375 205.40234375 C-129.3125 207.375 -129.3125 207.375 -128.48828125 210.5703125 C-129.7394168 216.3456965 -133.30455623 219.27067476 -137.5 223.25 C-138.26892578 224.02085937 -139.03785156 224.79171875 -139.83007812 225.5859375 C-146.32385222 231.918064 -146.32385222 231.918064 -151.3125 232.375 C-153.3046875 231.40625 -153.3046875 231.40625 -155.1875 229.875 C-155.87199219 229.31941406 -156.55648437 228.76382813 -157.26171875 228.19140625 C-160.42668507 225.38815037 -163.39004376 222.42798779 -166.3125 219.375 C-167.488125 218.199375 -167.488125 218.199375 -168.6875 217 C-169.55375 216.13375 -170.42 215.2675 -171.3125 214.375 C-171.93511719 213.79878906 -172.55773437 213.22257813 -173.19921875 212.62890625 C-189.51469703 197.13359564 -206.56380151 173.24168792 -207.55078125 150.00390625 C-208.17190923 121.97550633 -195.05983204 101.16473182 -177.3125 80.375 C-176.631875 79.570625 -175.95125 78.76625 -175.25 77.9375 C-171.57399845 73.6871232 -167.77029884 69.84910037 -163.47265625 66.23046875 C-161.94541645 64.91864433 -160.45615956 63.56198201 -158.99609375 62.17578125 C-145.65066315 49.52309055 -130.16970329 39.57471268 -114.3125 30.375 C-113.70438477 30.01599609 -113.09626953 29.65699219 -112.46972656 29.28710938 C-78.76428337 9.53590849 -38.82631444 -0.08247363 0 0 Z " fill="#000000" transform="translate(255.3125,111.625)"/>
<path d="M0 0 C2 2 2 2 2.48144531 4.71875 C1.82085286 9.22096225 -0.57481298 11.43778603 -3.703125 14.5 C-4.59266876 15.3981543 -4.59266876 15.3981543 -5.50018311 16.31445312 C-6.76065506 17.57900454 -8.02872215 18.83602414 -9.30371094 20.0859375 C-11.2228559 21.97330535 -13.10828606 23.8900305 -14.9921875 25.8125 C-21.36715881 32.20694758 -27.13975321 37.19398941 -35.51220703 40.87451172 C-42.86038918 44.19886105 -47.62862867 50.83167547 -50.9453125 57.9453125 C-55.00803626 65.67844043 -60.52666973 71.43921038 -66.73413086 77.51635742 C-68.58507704 79.3346791 -70.40121394 81.18354455 -72.21679688 83.03710938 C-73.39391084 84.21026548 -74.57288096 85.3815628 -75.75390625 86.55078125 C-76.2915712 87.10059158 -76.82923615 87.65040192 -77.38319397 88.21687317 C-80.01199904 90.74960632 -81.6087439 91.94421492 -85.26538086 92.46557617 C-88 92 -88 92 -90 90 C-92.81073003 69.68007524 -87.52103478 50.02687429 -76.1015625 33.203125 C-74.46125251 31.06857314 -72.76948264 29.0279464 -71 27 C-69.84177734 25.54787109 -69.84177734 25.54787109 -68.66015625 24.06640625 C-52.60561565 4.83349441 -24.20022036 -3.34746742 0 0 Z " fill="#000000" transform="translate(266,176)"/>
</svg>
