<?xml version="1.0" encoding="UTF-8"?>
<svg version="1.1" xmlns="http://www.w3.org/2000/svg" width="224" height="224">
<path d="M0 0 C1.16105255 0.00007553 2.3221051 0.00015106 3.51834106 0.00022888 C4.77669769 0.00539017 6.03505432 0.01055145 7.33154297 0.01586914 C8.61608368 0.01728409 9.90062439 0.01869904 11.22409058 0.02015686 C14.64029889 0.02397628 18.05646473 0.03380166 21.47265625 0.04486084 C24.95816473 0.05508732 28.44368006 0.05965713 31.92919922 0.06469727 C38.76906042 0.07542444 45.60889341 0.09249397 52.44873047 0.11352539 C53.43355815 1.87375387 54.41838582 3.63398234 55.4032135 5.39421082 C56.6529838 7.44941255 58.02865317 8.9030694 59.88623047 10.42602539 C60.71960938 11.13178711 60.71960938 11.13178711 61.56982422 11.85180664 C66.95061993 15.46510605 72.00251079 15.43413376 78.28076172 15.44946289 C79.70662849 15.45944809 79.70662849 15.45944809 81.16130066 15.46963501 C83.16928173 15.47974218 85.17729625 15.48445263 87.18530273 15.48413086 C90.24047925 15.48849574 93.2942007 15.52481318 96.34912109 15.56274414 C98.30549639 15.56861454 100.26187851 15.57258244 102.21826172 15.57446289 C103.12373245 15.58883392 104.02920319 15.60320496 104.96211243 15.61801147 C112.07282066 15.56738022 117.37929083 13.85654091 122.72607422 9.07836914 C123.27392578 8.4093457 123.82177734 7.74032227 124.38623047 7.05102539 C124.95212891 6.37942383 125.51802734 5.70782227 126.10107422 5.01586914 C127.6305251 3.05207537 127.6305251 3.05207537 128.44873047 0.11352539 C135.79419001 0.04391739 143.13957806 -0.00934045 150.48530102 -0.04191113 C153.89648808 -0.057546 157.30744896 -0.07874375 160.71850586 -0.11279297 C164.64287581 -0.15171952 168.56715517 -0.1662019 172.49169922 -0.17944336 C173.71269821 -0.19492722 174.9336972 -0.21041107 176.19169617 -0.22636414 C177.90290398 -0.22670403 177.90290398 -0.22670403 179.64868164 -0.22705078 C180.65017746 -0.23371262 181.65167328 -0.24037445 182.68351746 -0.24723816 C186.94829293 0.30916583 189.57077959 2.33412673 192.73022461 5.13891602 C195.29918005 9.58559211 195.00232078 13.657887 194.94482422 18.70727539 C194.94627945 19.7315564 194.94773468 20.7558374 194.94923401 21.81115723 C194.94757678 23.97301076 194.93603527 26.1348763 194.9152832 28.29663086 C194.88633149 31.60199195 194.89467808 34.90574829 194.90771484 38.21118164 C194.90147704 40.314054 194.89308577 42.41692131 194.88232422 44.51977539 C194.88525986 45.50635132 194.8881955 46.49292725 194.89122009 47.50939941 C194.80704734 53.6441528 194.01249696 57.12246449 189.94873047 61.86352539 C186.43590987 64.79087589 182.19614572 64.26718176 177.88397217 64.27415466 C176.71759795 64.28178639 176.71759795 64.28178639 175.52766061 64.2895723 C172.91378724 64.30530833 170.29994155 64.31382485 167.68603516 64.32226562 C165.81519901 64.33180308 163.94436465 64.34169419 162.0735321 64.35191345 C155.92257788 64.38330831 149.77161008 64.40356498 143.62060547 64.42211914 C142.57439939 64.42541646 141.5281933 64.42871378 140.450284 64.43211102 C130.58523464 64.46288986 120.72018224 64.48959953 110.85509872 64.50652981 C98.2332112 64.52844477 85.61174862 64.57043477 72.990031 64.63996738 C64.11690079 64.6871912 55.24388531 64.71146114 46.37063336 64.71872669 C41.0700725 64.72368498 35.76999054 64.73878321 30.46956635 64.77847099 C25.48225681 64.81532239 20.4957 64.82375187 15.5082798 64.81046486 C13.67932182 64.81051883 11.8503306 64.82082469 10.02149773 64.84221649 C-5.52338673 65.01430339 -5.52338673 65.01430339 -10.13128662 61.25746155 C-13.00960205 57.51807979 -13.67002794 55.14429828 -13.76000977 50.56958008 C-13.78894569 49.19234772 -13.78894569 49.19234772 -13.81846619 47.78729248 C-13.87636723 43.58862408 -13.92548362 39.39012356 -13.95629883 35.19116211 C-13.97787763 32.97974022 -14.0119788 30.76840372 -14.05883789 28.55737305 C-14.12591201 25.36216245 -14.15331033 22.16871616 -14.17236328 18.97290039 C-14.20019394 17.99037292 -14.2280246 17.00784546 -14.25669861 15.99554443 C-14.23870045 9.9576998 -13.2981989 6.71867499 -9.0372467 2.36065674 C-6.04603259 -0.14977004 -3.82048569 -0.00826945 0 0 Z " fill="#000000" transform="translate(21.55126953125,143.886474609375)"/>
<path d="M0 0 C7.44210246 5.21484927 13.70904803 12.56290802 20.12109375 18.98828125 C21.27297135 20.139484 22.42499725 21.29053837 23.5771637 22.44145203 C25.97486213 24.83768555 28.37076582 27.23569505 30.76538086 29.63500977 C33.83762882 32.71299316 36.9143972 35.78641286 39.99249172 38.85854816 C42.36454233 41.22699342 44.7342163 43.59780493 47.10316658 45.96935081 C48.2375655 47.10441708 49.37270845 48.23874025 50.50860405 49.37230873 C52.08816085 50.94933529 53.66449282 52.52951512 55.23999023 54.1105957 C56.58612648 55.45792534 56.58612648 55.45792534 57.9594574 56.83247375 C60.34485872 59.36631939 60.91610799 60.3708099 61.375 63.8125 C61 67 61 67 58.9855957 69.66870117 C55.23584028 72.5966932 52.41253885 72.64725061 47.85546875 72.48828125 C46.7007885 72.47766914 46.7007885 72.47766914 45.52278137 72.46684265 C43.07667697 72.43896925 40.63290616 72.37625137 38.1875 72.3125 C36.52412173 72.28740768 34.86070738 72.26459613 33.19726562 72.24414062 C29.13061843 72.18916671 25.06570411 72.10294927 21 72 C21.01110306 72.72805344 21.02220612 73.45610687 21.03364563 74.20622253 C21.13394863 81.07696127 21.21001607 87.94759018 21.25906086 94.81887341 C21.28512388 98.35132845 21.32045866 101.88317713 21.37719727 105.4152832 C21.44206064 109.47873661 21.46620732 113.54155598 21.48828125 117.60546875 C21.51408768 118.8702153 21.5398941 120.13496185 21.56648254 121.43803406 C21.56923935 130.05796715 21.56923935 130.05796715 19.00854492 134.2956543 C14.99593408 136.56880501 11.91963472 136.72230773 7.375 136.6640625 C6.1382251 136.67123795 6.1382251 136.67123795 4.87646484 136.67855835 C3.13832687 136.68195122 1.40012456 136.67279153 -0.33789062 136.65185547 C-2.99233825 136.62507729 -5.64255825 136.65161996 -8.296875 136.68359375 C-9.98959263 136.68028954 -11.68230763 136.67388306 -13.375 136.6640625 C-14.16471191 136.67418365 -14.95442383 136.68430481 -15.76806641 136.69473267 C-19.53984968 136.61486093 -21.67498519 136.18412143 -25.00854492 134.2956543 C-28.21728152 128.9855237 -27.61231903 123.68443348 -27.48828125 117.60546875 C-27.48120651 116.30297684 -27.47413177 115.00048492 -27.46684265 113.65852356 C-27.44781513 110.20736116 -27.39875439 106.75726261 -27.34332275 103.30651855 C-27.29203649 99.78066396 -27.26930883 96.25463627 -27.24414062 92.72851562 C-27.19062898 85.81857531 -27.10536972 78.90933883 -27 72 C-28.03406982 72.02618408 -29.06813965 72.05236816 -30.13354492 72.0793457 C-33.98179359 72.17006423 -37.8299484 72.22732659 -41.67895508 72.2746582 C-43.34252839 72.29975347 -45.00599196 72.33383796 -46.66918945 72.37719727 C-49.06489153 72.4380746 -51.45913251 72.46625769 -53.85546875 72.48828125 C-54.5952446 72.51408768 -55.33502045 72.5398941 -56.09721375 72.56648254 C-60.08014181 72.56863029 -61.80547584 72.15463493 -64.9621582 69.64526367 C-67 67 -67 67 -67.75 64.1875 C-65.61758418 55.12473277 -54.51845521 47.37214643 -48.01171875 40.87890625 C-46.860516 39.72702865 -45.70946163 38.57500275 -44.55854797 37.4228363 C-42.16231445 35.02513787 -39.76430495 32.62923418 -37.36499023 30.23461914 C-34.28700684 27.16237118 -31.21358714 24.0856028 -28.14145184 21.00750828 C-25.77300658 18.63545767 -23.40219507 16.2657837 -21.03064919 13.89683342 C-19.89558292 12.7624345 -18.76125975 11.62729155 -17.62769127 10.49139595 C-16.05066471 8.91183915 -14.47048488 7.33550718 -12.8894043 5.76000977 C-11.99118454 4.8625856 -11.09296478 3.96516144 -10.16752625 3.0405426 C-6.77443222 -0.15376839 -4.63859592 -0.6871994 0 0 Z " fill="#000000" transform="translate(115,8)"/>
<path d="M0 0 C4.0743356 0.84881992 5.54405875 2.30225596 8 5.625 C8.625 8.625 8.625 8.625 8 11.625 C5.54405875 14.94774404 4.0743356 16.40118008 0 17.25 C-4.0743356 16.40118008 -5.54405875 14.94774404 -8 11.625 C-8.625 8.625 -8.625 8.625 -8 5.625 C-5.54405875 2.30225596 -4.0743356 0.84881992 0 0 Z " fill="#97fb57" transform="translate(192,175.375)"/>
<path d="M0 0 C4.0743356 0.84881992 5.54405875 2.30225596 8 5.625 C8.625 8.625 8.625 8.625 8 11.625 C5.54405875 14.94774404 4.0743356 16.40118008 0 17.25 C-4.0743356 16.40118008 -5.54405875 14.94774404 -8 11.625 C-8.625 8.625 -8.625 8.625 -8 5.625 C-5.54405875 2.30225596 -4.0743356 0.84881992 0 0 Z " fill="#97fb57" transform="translate(160,175.375)"/>
</svg>
